<?xml version="1.0" standalone="no"?><!DOCTYPE svg PUBLIC "-//W3C//DTD SVG 1.1//EN" "http://www.w3.org/Graphics/SVG/1.1/DTD/svg11.dtd"><svg t="1723552392823" class="icon" viewBox="0 0 1630 1024" version="1.1" xmlns="http://www.w3.org/2000/svg" p-id="7170" xmlns:xlink="http://www.w3.org/1999/xlink" width="318.359375" height="200"><path d="M1310.062617 491.241877h-1112.493827c-36.358321 0-63.488-33.475951-56.029234-68.999902l77.912493-371.193679A57.255506 57.255506 0 0 1 275.468642 5.549827h839.819062c21.276444 0 40.808296 11.807605 50.694321 30.65679l194.774913 371.193679c19.974321 38.07763-7.698963 83.854222-50.694321 83.854223z" fill="#D1D3D4" p-id="7171"></path><path d="M1360.756938 407.400296L1165.982025 36.206617a57.242864 57.242864 0 0 0-50.694321-30.65679H753.815704v485.704692h556.246913c42.995358 0 70.668642-45.776593 50.694321-83.854223z" fill="#BCBEC0" p-id="7172"></path><path d="M753.815704 490.925827c31.61758 0 57.255506-25.637926 57.255506-57.255506V5.562469H696.57284v428.107852a57.242864 57.242864 0 0 0 57.242864 57.255506z" fill="#A7A9AC" p-id="7173"></path><path d="M753.815704 5.562469v485.363358c31.604938 0 57.242864-25.637926 57.242864-57.255506V5.562469h-57.242864z" fill="#939598" p-id="7174"></path><path d="M1567.250963 862.435556H1235.184198a57.242864 57.242864 0 0 1-57.255507-57.242865c0-122.159407-184.863605-122.184691-184.863605 0 0 31.604938-25.637926 57.242864-57.242864 57.242865H633.969778a57.242864 57.242864 0 0 1-57.242864-57.242865c0-122.159407-184.901531-122.184691-184.901531 0 0 31.604938-25.637926 57.242864-57.255506 57.242865H249.173333a57.242864 57.242864 0 0 1-57.242864-57.242865V676.838716H63.563852A57.242864 57.242864 0 0 1 6.320988 619.595852v-185.584198c0-31.630222 25.625284-57.255506 57.242864-57.255506h1318.090271c31.604938 0 57.242864 25.625284 57.242865 57.242864v128.353976h128.353975c31.604938 0 57.242864 25.625284 57.242864 57.242864v185.584197a57.242864 57.242864 0 0 1-57.242864 57.255507z" fill="#48AEE2" p-id="7175"></path><path d="M306.403556 862.435556H63.563852A57.242864 57.242864 0 0 1 6.320988 805.192691v-242.852345h242.839703c31.604938 0 57.242864 25.637926 57.242865 57.255506V862.435556z" fill="#F59D00" p-id="7176"></path><path d="M1567.250963 562.352988h-128.353975V433.999012c0-31.604938-25.625284-57.242864-57.242865-57.242864H753.815704V862.435556h181.993876c31.61758 0 57.242864-25.637926 57.242864-57.242865 0-122.134123 184.876247-122.184691 184.876247 0 0 31.604938 25.637926 57.242864 57.242865 57.242865h332.079407c31.604938 0 57.242864-25.637926 57.242864-57.242865V619.58321c0-31.604938-25.637926-57.242864-57.242864-57.242864z" fill="#39A3DB" p-id="7177"></path><path d="M484.28879 1012.116543c-114.119111 0-206.949136-92.830025-206.949136-206.949136 0-114.081185 92.830025-206.91121 206.949136-206.911209 114.106469 0 206.949136 92.830025 206.949136 206.911209 0 114.119111-92.830025 206.949136-206.949136 206.949136z" fill="#808285" p-id="7178"></path><path d="M852.296691 676.838716h-73.778568a57.242864 57.242864 0 0 1 0-114.49837h73.778568a57.242864 57.242864 0 0 1 0 114.49837z" fill="#3797D3" p-id="7179"></path><path d="M852.296691 562.340346h-73.778568c-8.862025 0-17.21837 2.073284-24.702419 5.663605v103.158518a56.952099 56.952099 0 0 0 24.702419 5.676247h73.778568a57.242864 57.242864 0 0 0 0-114.49837z" fill="#4881C2" p-id="7180"></path><path d="M1085.528494 1012.116543c-114.119111 0-206.949136-92.830025-206.949136-206.949136 0-114.081185 92.830025-206.91121 206.949136-206.911209 114.093827 0 206.91121 92.830025 206.91121 206.911209 0 114.119111-92.830025 206.949136-206.91121 206.949136z" fill="#6D6E71" p-id="7181"></path><path d="M1624.493827 676.851358h-242.839704a57.242864 57.242864 0 0 1-57.242864-57.255506V376.756148h242.839704c31.604938 0 57.242864 25.625284 57.242864 57.242864v242.852346z" fill="#E87E04" p-id="7182"></path></svg>