<?xml version="1.0" standalone="no"?><!DOCTYPE svg PUBLIC "-//W3C//DTD SVG 1.1//EN" "http://www.w3.org/Graphics/SVG/1.1/DTD/svg11.dtd"><svg t="1723555878772" class="icon" viewBox="0 0 1024 1024" version="1.1" xmlns="http://www.w3.org/2000/svg" p-id="2729" xmlns:xlink="http://www.w3.org/1999/xlink" width="200" height="200"><path d="M277.333333 704v149.44S277.333333 896 320 896h85.333333s0-42.666667-42.666666-42.666667v-85.333333l-85.333334-64z" fill="#B0BEC5" p-id="2730"></path><path d="M490.666667 640c-42.666667 64-128 128-128 128l-85.333334-64s64-85.333333 64-192l149.333334 128zM640 640v213.44S640 896 682.666667 896h85.333333s0-42.666667-42.666667-42.666667V576l-85.333333 64z" fill="#B0BEC5" p-id="2731"></path><path d="M576 640v213.44S576 896 618.666667 896h85.333333s0-42.666667-42.666667-42.666667V640h-85.333333z" fill="#CFD8DC" p-id="2732"></path><path d="M576 682.666667c-64 0-128-42.666667-128-42.666667s-64-42.666667-106.666667 21.333333-106.666667 106.666667-106.666666 106.666667l-85.333334-64s64-85.333333 64-192 106.666667-128 106.666667-128h170.666667l64-42.666667 64-170.666666s21.333333-42.624 64-42.624h42.666666s55.168 3.648 85.333334 64c21.333333 42.666667 106.666667 64 106.666666 64S917.333333 362.666667 789.333333 362.666667c-42.666667 0-42.666667 21.333333-42.666666 42.666666v128c0 64-64 106.666667-85.333334 128" fill="#CFD8DC" p-id="2733"></path><path d="M149.333333 704v149.44S149.333333 896 192 896h85.333333s0-42.666667-42.666666-42.666667v-85.333333l-85.333334-64z" fill="#CFD8DC" p-id="2734"></path><path d="M746.666667 533.333333v-128c0-21.333333 0-42.666667 42.666666-42.666666 0 0 64-106.666667 21.333334-170.624-30.165333-60.352-85.333333-64-85.333334-64h-42.666666C640 128.042667 618.666667 170.666667 618.666667 170.666667l-64 170.666666-64 42.666667h-170.666667s-106.666667 21.333333-106.666667 128-64 192-64 192 149.333333 21.333333 192-42.666667 106.666667-21.333333 106.666667-21.333333 58.901333 42.666667 128 42.666667 170.666667-19.093333 170.666667-149.333334z" fill="#CC6C25" p-id="2735"></path><path d="M640 192l-21.333333 128s21.333333 64 64 85.333333 85.333333 0 85.333333-64v-42.666666l-64-128-64 21.333333z" fill="#894415" p-id="2736"></path><path d="M804.416 219.584c8.341333 8.341333 8.341333 21.824 0 30.165333S768 256 768 256s-2.090667-28.074667 6.250667-36.416 21.824-8.341333 30.165333 0z" fill="#3E2723" p-id="2737"></path><path d="M917.333333 256.042667s-14.058667-3.584-32.128-10.581334l-4.288 4.288a21.312 21.312 0 0 0 0 30.165334l23.552 23.552c12.693333-24.554667 12.864-47.424 12.864-47.424z" fill="#5D4037" p-id="2738"></path><path d="M597.333333 227.541333L554.666667 341.333333l-64 42.666667h-170.666667s-46.208 6.272-77.781333 46.250667c17.024 27.776 78.229333 133.802667 141.248 198.272C416.810667 619.306667 448 640 448 640s25.706667 17.109333 60.8 29.653333A149.269333 149.269333 0 0 0 597.333333 533.333333V227.541333z" fill="#6D350F" p-id="2739"></path><path d="M277.312 448a21.056 21.056 0 0 1-8.64-1.834667c-3.626667-1.621333-89.344-40.576-114.112-125.973333-16.256-56-2.453333-117.482667 41.024-182.698667a21.354667 21.354667 0 0 1 35.498667 23.68c-36.096 54.122667-48.085333 103.552-35.648 146.837334 19.029333 66.261333 123.84 75.669333 124.565333 75.989333 10.709333 4.842667-18.410667 40.618667-23.210667 51.370667a21.376 21.376 0 0 1-19.477333 12.629333z" fill="#6D350F" p-id="2740"></path></svg>