<?xml version="1.0" standalone="no"?><!DOCTYPE svg PUBLIC "-//W3C//DTD SVG 1.1//EN" "http://www.w3.org/Graphics/SVG/1.1/DTD/svg11.dtd"><svg t="1723554605055" class="icon" viewBox="0 0 1024 1024" version="1.1" xmlns="http://www.w3.org/2000/svg" p-id="8544" xmlns:xlink="http://www.w3.org/1999/xlink" width="200" height="200"><path d="M988.868 828.788L628.222 524.071h221.32c21.206 0 30.885-26.451 14.687-40.138l-278.04-234.921h164.347c21.206 0 30.885-26.451 14.687-40.138L527.002 7.597c-8.48-7.165-20.893-7.165-29.373 0L259.408 208.874c-16.199 13.687-6.521 40.138 14.686 40.138h164.348l-278.04 234.921c-16.199 13.687-6.521 40.138 14.686 40.138h221.32L35.762 828.788c-16.198 13.686-6.52 40.137 14.687 40.137h410.29v101.733c0 28.277 22.923 51.2 51.2 51.2h0.754c28.277 0 51.2-22.923 51.2-51.2V868.925h410.29c21.206 0 30.884-26.45 14.686-40.137z" fill="#0E932E" p-id="8545"></path></svg>