<?xml version="1.0" standalone="no"?><!DOCTYPE svg PUBLIC "-//W3C//DTD SVG 1.1//EN" "http://www.w3.org/Graphics/SVG/1.1/DTD/svg11.dtd"><svg t="1721818332535" class="icon" viewBox="0 0 1024 1024" version="1.1" xmlns="http://www.w3.org/2000/svg" p-id="7832" xmlns:xlink="http://www.w3.org/1999/xlink" width="200" height="200"><path d="M650.666667 490.666667a95.786667 95.786667 0 0 1 95.786666-95.786667h0.213334a96 96 0 0 1 96 96v278.4c0 80.384-68.181333 180.053333-182.613334 180.053333H415.146667c-62.805333 0-121.514667-46.848-161.706667-96.768-40.704-50.602667-72.106667-116.266667-72.106667-169.898666 0-64.725333 20.864-117.76 68.650667-150.485334a32 32 0 1 1 36.181333 52.778667c-25.173333 17.28-40.832 46.933333-40.832 97.706667 0 32.981333 21.674667 84.693333 57.984 129.749333 36.778667 45.738667 79.018667 72.96 111.872 72.96h244.906667c72.96 0 118.570667-64.64 118.570667-116.053333v-278.442667a32 32 0 0 0-32-32h-0.213334a31.786667 31.786667 0 0 0-31.786666 31.786667 32 32 0 1 1-64 0z" p-id="7833"></path><path d="M362.24 138.837333a31.957333 31.957333 0 0 0-32 31.957334v436.053333a32 32 0 1 1-64 0V170.794667a95.957333 95.957333 0 0 1 96-95.957334h0.256a96.341333 96.341333 0 0 1 96 96.298667v332.16a32 32 0 1 1-64 0V171.136a32.298667 32.298667 0 0 0-32.170667-32.298667H362.24z" p-id="7834"></path><path d="M490.837333 373.333333a32.341333 32.341333 0 0 0-32.298666 32.341334v85.162666a32 32 0 0 1-64 0V405.674667a96.341333 96.341333 0 1 1 192.64 0v85.162666a32 32 0 0 1-64 0V405.674667a32.341333 32.341333 0 0 0-32.341334-32.341334z" p-id="7835"></path><path d="M618.666667 394.752a32 32 0 0 0-32 32v57.856a32 32 0 0 1-64 0v-57.856a96 96 0 1 1 192 0v64a32 32 0 0 1-64 0v-64a32 32 0 0 0-32-32z" p-id="7836"></path></svg>