<?xml version="1.0" standalone="no"?><!DOCTYPE svg PUBLIC "-//W3C//DTD SVG 1.1//EN" "http://www.w3.org/Graphics/SVG/1.1/DTD/svg11.dtd"><svg t="1728220449236" class="icon" viewBox="0 0 1024 1024" version="1.1" xmlns="http://www.w3.org/2000/svg" p-id="4253" xmlns:xlink="http://www.w3.org/1999/xlink" width="200" height="200"><path d="M572.341333 512l268.490667-268.501333a42.666667 42.666667 0 0 0-59.274667-61.376c-0.362667 0.341333-0.704 0.693333-1.056 1.045333L512 451.658667 243.509333 183.168a42.666667 42.666667 0 0 0-60.341333 60.330667L451.669333 512 183.168 780.501333a42.666667 42.666667 0 0 0 59.669333 61.002667l0.672-0.672L512 572.341333l268.501333 268.490667C788.832 849.162667 799.754667 853.333333 810.666667 853.333333s21.845333-4.170667 30.165333-12.501333a42.666667 42.666667 0 0 0 0-60.330667L572.341333 512z" p-id="4254" fill="#dd6572"></path></svg>