<?xml version="1.0" standalone="no"?><!DOCTYPE svg PUBLIC "-//W3C//DTD SVG 1.1//EN" "http://www.w3.org/Graphics/SVG/1.1/DTD/svg11.dtd"><svg t="1726104099893" class="icon" viewBox="0 0 1024 1024" version="1.1" xmlns="http://www.w3.org/2000/svg" p-id="4319" xmlns:xlink="http://www.w3.org/1999/xlink" width="200" height="200"><path d="M934.39999999 287.28888856c-4.266667-12.80000001-12.80000001-21.33333302-25.59999999-25.6l-366.93333299-196.266666c-17.06666702-8.533333-38.4-8.533333-55.466667 0L115.2 261.68888856C98.133333 270.22222256 85.33333301 291.55555554 85.33333301 312.88888856v383.99999999c0 21.33333302 12.80000001 42.666667 29.86666699 51.20000001l366.93333299 196.26666703c12.80000001 4.266667 25.60000001 8.533333 38.40000001 4.26666699 4.266667 0 12.80000001-4.266667 17.06666699-4.26666699l366.93333302-196.26666703c21.33333302-8.533333 34.13333299-29.86666701 34.13333402-51.20000001V312.88888856c0-8.533333-4.266667-17.06666702-4.26666702-25.6z m-413.86666699 217.60000001V867.55555557l-8.533333 8.53333299-349.866667-187.73333301V321.42222255L512 133.68888855l349.866667 187.733334-341.333334 183.46666602z" p-id="4320"></path></svg>