<?xml version="1.0" encoding="UTF-8" standalone="no"?>
<svg
   xmlns:dc="http://purl.org/dc/elements/1.1/"
   xmlns:cc="http://creativecommons.org/ns#"
   xmlns:rdf="http://www.w3.org/1999/02/22-rdf-syntax-ns#"
   xmlns:svg="http://www.w3.org/2000/svg"
   xmlns="http://www.w3.org/2000/svg"
   xmlns:sodipodi="http://sodipodi.sourceforge.net/DTD/sodipodi-0.dtd"
   xmlns:inkscape="http://www.inkscape.org/namespaces/inkscape"
   t="1720701623502"
   class="icon"
   viewBox="0 0 3072 2048"
   version="1.1"
   p-id="23414"
   width="600"
   height="400"
   id="svg4531"
   sodipodi:docname="gears.svg"
   inkscape:version="0.92.0 r15299">
  <metadata
     id="metadata4537">
    <rdf:RDF>
      <cc:Work
         rdf:about="">
        <dc:format>image/svg+xml</dc:format>
        <dc:type
           rdf:resource="http://purl.org/dc/dcmitype/StillImage" />
        <dc:title></dc:title>
      </cc:Work>
    </rdf:RDF>
  </metadata>
  <defs
     id="defs4535" />
  <sodipodi:namedview
     pagecolor="#ffffff"
     bordercolor="#666666"
     borderopacity="1"
     objecttolerance="10"
     gridtolerance="10"
     guidetolerance="10"
     inkscape:pageopacity="0"
     inkscape:pageshadow="2"
     inkscape:window-width="1920"
     inkscape:window-height="1001"
     id="namedview4533"
     showgrid="false"
     inkscape:zoom="1.18"
     inkscape:cx="158.10462"
     inkscape:cy="317.71339"
     inkscape:window-x="-9"
     inkscape:window-y="-9"
     inkscape:window-maximized="1"
     inkscape:current-layer="svg4531" />
  <path
     d="m 535.25927,234.98878 a 49.898951,49.898951 0 0 1 -50.68543,-24.5343 l -0.141,-0.24126 a 49.905216,49.905216 0 0 1 3.98565,-56.17824 c 8.40058,-10.65343 6.62395,-26.32032 -3.96058,-34.86813 a 219.96272,219.96272 0 0 0 -60.44588,-34.702127 25.019975,25.019975 0 0 0 -32.09199,14.12837 50.115154,50.115154 0 0 1 -46.57131,31.596937 49.930281,49.930281 0 0 1 -46.52431,-31.358777 25.13591,25.13591 0 0 0 -32.35833,-14.10018 222.99269,222.99269 0 0 0 -60.14195,34.855627 24.716039,24.716039 0 0 0 -9.05544,16.78861 25.186044,25.186044 0 0 0 5.28913,18.20488 50.168419,50.168419 0 0 1 -14.30384,74.38626 50.469223,50.469223 0 0 1 -32.233,6.24168 25.016842,25.016842 0 0 0 -28.23795,20.79931 220.00972,220.00972 0 0 0 0,69.68621 c 2.1589,13.43902 14.84278,22.76393 28.26928,20.78991 a 50.152754,50.152754 0 0 1 46.68725,80.67809 c -8.40684,10.65343 -6.64589,26.30152 3.92924,34.87128 a 219.96272,219.96272 0 0 0 60.41768,34.75538 24.753639,24.753639 0 0 0 19.0227,-0.57031 25.173511,25.173511 0 0 0 13.11317,-13.65836 50.152754,50.152754 0 0 1 93.06115,-0.0533 25.139044,25.139044 0 0 0 32.35206,14.12523 222.97075,222.97075 0 0 0 60.04795,-34.70833 25.132777,25.132777 0 0 0 3.91357,-35.09378 49.936551,49.936551 0 0 1 -3.99191,-55.94634 49.920881,49.920881 0 0 1 50.49114,-24.63771 25.164111,25.164111 0 0 0 18.38038,-4.5434 24.734839,24.734839 0 0 0 9.98917,-16.2152 219.92198,219.92198 0 0 0 0.047,-69.68621 c -2.14632,-13.43902 -14.82708,-22.78588 -28.2536,-20.81186 z m -137.52056,25.59966 c 16.58807,28.71421 6.70855,65.57836 -22.01507,82.16642 -28.72362,16.58805 -65.60028,6.70853 -82.18522,-22.00567 -16.58494,-28.71421 -6.70855,-65.60966 22.02447,-82.19462 28.73302,-16.58495 65.59088,-6.70853 82.17582,22.03387 z"
     p-id="23415"
     id="path4529"
     inkscape:connector-curvature="0"
     style="fill:#4179b0;fill-opacity:1;stroke-width:0.47000581" />
  <path
     d="m 587.25454,891.34552 a 64.486878,64.486878 0 0 1 -65.50329,-31.70689 l -0.18223,-0.31179 a 64.494975,64.494975 0 0 1 5.15085,-72.60191 c 10.85649,-13.76796 8.56046,-34.01505 -5.11845,-45.06181 a 284.26868,284.26868 0 0 0 -78.1172,-44.84728 32.334549,32.334549 0 0 0 -41.47405,18.25879 64.766288,64.766288 0 0 1 -60.1864,40.83429 64.527368,64.527368 0 0 1 -60.12568,-40.5265 32.484378,32.484378 0 0 0 -41.81825,-18.22236 288.18446,288.18446 0 0 0 -77.72443,45.04565 31.941758,31.941758 0 0 0 -11.70279,21.69675 32.549168,32.549168 0 0 0 6.83541,23.52705 64.835125,64.835125 0 0 1 -18.48556,96.13305 65.223869,65.223869 0 0 1 -41.656304,8.06644 32.3305,32.3305 0 0 0 -36.493294,26.87997 284.32942,284.32942 0 0 0 0,90.05893 c 2.790053,17.3679 19.182054,29.4189 36.533784,26.8678 A 64.81488,64.81488 0 0 1 157.5229,1139.7 c -10.86458,13.7679 -8.5888,33.9906 5.07795,45.0658 a 284.26868,284.26868 0 0 0 78.08076,44.9161 31.99035,31.99035 0 0 0 24.58398,-0.737 32.532971,32.532971 0 0 0 16.94679,-17.6514 64.81488,64.81488 0 0 1 120.26752,-0.069 32.488428,32.488428 0 0 0 41.81017,18.2547 288.15611,288.15611 0 0 0 77.60293,-44.8553 32.480329,32.480329 0 0 0 5.0577,-45.3534 64.535471,64.535471 0 0 1 -5.15894,-72.3022 64.51522,64.51522 0 0 1 65.25219,-31.8405 32.520823,32.520823 0 0 0 23.75387,-5.8716 31.966054,31.966054 0 0 0 12.90949,-20.9557 284.21603,284.21603 0 0 0 0.0609,-90.05895 c -2.77394,-17.36791 -19.16191,-29.44733 -36.51366,-26.89621 z m -177.72461,33.0837 c 21.43758,37.10879 8.66977,84.75018 -28.45118,106.18768 -37.12095,21.4376 -84.77847,8.6697 -106.21202,-28.439 -21.43353,-37.10876 -8.66977,-84.79059 28.46333,-106.22415 37.1331,-21.43355 84.76632,-8.66975 106.19987,28.47547 z"
     p-id="23415"
     id="path4529-0"
     inkscape:connector-curvature="0"
     style="fill:#4179b0;fill-opacity:1;stroke-width:0.60741174" />
  <path
     d="m 811.54035,367.32749 a 36.353016,36.353016 0 0 1 -36.926,-17.87404 l -0.1027,-0.17577 a 36.357581,36.357581 0 0 1 2.9037,-40.92768 c 6.12,-7.76137 4.8257,-19.17521 -2.8854,-25.40257 a 160.25003,160.25003 0 0 0 -44.0368,-25.28164 18.227869,18.227869 0 0 0 -23.3801,10.29298 36.510527,36.510527 0 0 1 -33.92873,23.0194 36.375841,36.375841 0 0 1 -33.89447,-22.84589 18.312332,18.312332 0 0 0 -23.57408,-10.27244 162.45746,162.45746 0 0 0 -43.81541,25.39346 18.006442,18.006442 0 0 0 -6.59716,12.23105 18.348856,18.348856 0 0 0 3.85328,13.26285 36.549333,36.549333 0 0 1 -10.42078,54.19282 36.768478,36.768478 0 0 1 -23.4828,4.54727 18.225587,18.225587 0 0 0 -20.5723,15.15298 160.28427,160.28427 0 0 0 0,50.76867 c 1.57283,9.79075 10.81346,16.58425 20.59511,15.14615 a 36.53792,36.53792 0 0 1 34.01315,58.7766 c -6.12463,7.7614 -4.84176,19.1615 2.86262,25.4049 a 160.25003,160.25003 0 0 0 44.01627,25.3204 18.033835,18.033835 0 0 0 13.85866,-0.4155 18.339725,18.339725 0 0 0 9.55332,-9.9505 36.53792,36.53792 0 0 1 67.79812,-0.039 18.314615,18.314615 0 0 0 23.5695,10.2907 162.44148,162.44148 0 0 0 43.7469,-25.2861 18.310049,18.310049 0 0 0 2.8512,-25.567 36.380409,36.380409 0 0 1 -2.9082,-40.7587 36.368993,36.368993 0 0 1 36.7844,-17.9494 18.332877,18.332877 0 0 0 13.3907,-3.31 18.020139,18.020139 0 0 0 7.2774,-11.81329 160.22035,160.22035 0 0 0 0.034,-50.7687 c -1.5637,-9.79077 -10.8021,-16.60027 -20.5837,-15.16213 z m -100.1882,18.65019 c 12.085,20.91923 4.8874,47.776 -16.03872,59.86091 -20.92608,12.085 -47.79196,4.8874 -59.87461,-16.03188 -12.08271,-20.91923 -4.88743,-47.79875 16.04557,-59.88144 20.93293,-12.08267 47.78504,-4.88737 59.86776,16.05241 z"
     p-id="23415"
     id="path4529-6"
     inkscape:connector-curvature="0"
     style="fill:#4179b0;fill-opacity:1;stroke-width:0.34241459" />
  <path
     d="m 1289.5424,1340.2948 a 109.26929,109.26929 0 0 1 -110.9914,-53.7255 l -0.3088,-0.5283 a 109.28301,109.28301 0 0 1 8.7277,-123.0197 c 18.3958,-23.329 14.5053,-57.6366 -8.6727,-76.3547 a 481.67687,481.67687 0 0 0 -132.3651,-75.9911 54.789027,54.789027 0 0 0 -70.27546,30.9385 109.74274,109.74274 0 0 1 -101.9823,69.1913 109.3379,109.3379 0 0 1 -101.8795,-68.6698 55.042903,55.042903 0 0 0 -70.8588,-30.8767 488.31194,488.31194 0 0 0 -131.6994,76.3272 54.123464,54.123464 0 0 0 -19.8296,36.7639 55.152687,55.152687 0 0 0 11.5821,39.8653 109.85938,109.85938 0 0 1 -31.3228,162.8919 110.51808,110.51808 0 0 1 -70.5842,13.6681 54.782166,54.782166 0 0 0 -61.8357,45.5465 481.7798,481.7798 0 0 0 0,152.5998 c 4.7276,29.4288 32.5029,49.8486 61.9045,45.5259 a 109.82507,109.82507 0 0 1 102.2361,176.6699 c -18.4093,23.3289 -14.5533,57.5953 8.6044,76.3613 a 481.67687,481.67687 0 0 0 132.3032,76.1078 54.205801,54.205801 0 0 0 41.6561,-1.2489 55.125242,55.125242 0 0 0 28.7155,-29.9091 109.82507,109.82507 0 0 1 203.7864,-0.116 55.049765,55.049765 0 0 0 70.84476,30.9315 488.26389,488.26389 0 0 0 131.4938,-76.0046 55.036042,55.036042 0 0 0 8.5698,-76.8488 109.35163,109.35163 0 0 1 -8.7415,-122.5121 109.31731,109.31731 0 0 1 110.5662,-53.9519 55.104657,55.104657 0 0 0 40.2496,-9.9492 54.164633,54.164633 0 0 0 21.8743,-35.5082 481.58766,481.58766 0 0 0 0.1029,-152.5997 c -4.7002,-29.4289 -32.4688,-49.8968 -61.8703,-45.574 z m -301.14386,56.0584 c 36.32456,62.8788 14.69026,143.6043 -48.2089,179.9291 -62.8993,36.3246 -143.6523,14.6903 -179.9701,-48.1884 -36.318,-62.8787 -14.6906,-143.6728 48.2293,-179.9907 62.92,-36.3179 143.6317,-14.6904 179.9497,48.25 z"
     p-id="23415"
     id="path4529-4"
     inkscape:connector-curvature="0"
     style="fill:#4179b0;fill-opacity:1;stroke-width:1.02922404" />
  <path
     d="m 1904.6401,1138.5947 a 80.116799,80.116799 0 0 1 -81.3797,-39.3918 l -0.2264,-0.3874 a 80.126858,80.126858 0 0 1 6.3994,-90.1987 c 13.4878,-17.10486 10.6352,-42.25933 -6.3591,-55.98352 a 353.16793,353.16793 0 0 0 -97.0507,-55.71718 40.171592,40.171592 0 0 0 -51.5263,22.68429 80.463931,80.463931 0 0 1 -74.774,50.73137 80.167102,80.167102 0 0 1 -74.6986,-50.34893 40.357735,40.357735 0 0 0 -51.9538,-22.63901 358.03279,358.03279 0 0 0 -96.5629,55.96349 39.683599,39.683599 0 0 0 -14.5391,26.95545 40.43823,40.43823 0 0 0 8.492,29.22944 80.549452,80.549452 0 0 1 -22.9659,119.4333 81.032417,81.032417 0 0 1 -51.7527,10.0213 40.166562,40.166562 0 0 0 -45.3384,33.3952 353.24339,353.24339 0 0 0 0,111.8868 c 3.4663,21.5774 23.8314,36.5493 45.3887,33.3799 a 80.524301,80.524301 0 0 1 74.9602,129.5352 c -13.4979,17.1049 -10.6705,42.2292 6.3087,55.9885 a 353.16793,353.16793 0 0 0 97.0055,55.8026 39.743968,39.743968 0 0 0 30.5425,-0.9156 40.418107,40.418107 0 0 0 21.0543,-21.9295 80.524301,80.524301 0 0 1 149.4171,-0.085 40.362767,40.362767 0 0 0 51.9439,22.6791 357.99756,357.99756 0 0 0 96.4117,-55.727 40.352705,40.352705 0 0 0 6.2837,-56.3459 80.177169,80.177169 0 0 1 -6.4094,-89.8265 80.15201,80.15201 0 0 1 81.0676,-39.5578 40.403014,40.403014 0 0 0 29.5112,-7.2948 39.713783,39.713783 0 0 0 16.0385,-26.0348 353.10252,353.10252 0 0 0 0.075,-111.8868 c -3.4464,-21.5774 -23.8062,-36.5847 -45.3636,-33.4152 z m -220.8005,41.1025 c 26.6336,46.1029 10.7711,105.2912 -35.347,131.9248 -46.118,26.6333 -105.3264,10.771 -131.955,-35.332 -26.6284,-46.1029 -10.771,-105.3417 35.3622,-131.9701 46.1331,-26.6285 105.3114,-10.771 131.9398,35.3773 z"
     p-id="23415"
     id="path4529-3"
     inkscape:connector-curvature="0"
     style="fill:#4179b0;fill-opacity:1;stroke-width:0.75463229" />
  <path
     d="m 2307.0462,1354.5277 a 49.898951,49.898951 0 0 1 -50.6854,-24.5344 l -0.141,-0.2412 a 49.905216,49.905216 0 0 1 3.9856,-56.1783 c 8.4006,-10.6534 6.624,-26.3203 -3.9605,-34.8681 a 219.96272,219.96272 0 0 0 -60.4459,-34.7021 25.019975,25.019975 0 0 0 -32.092,14.1283 50.115154,50.115154 0 0 1 -46.5713,31.597 49.930281,49.930281 0 0 1 -46.5243,-31.3588 25.13591,25.13591 0 0 0 -32.3583,-14.1002 222.99269,222.99269 0 0 0 -60.142,34.8557 24.716039,24.716039 0 0 0 -9.0554,16.7886 25.186044,25.186044 0 0 0 5.2891,18.2048 50.168419,50.168419 0 0 1 -14.3039,74.3863 50.469223,50.469223 0 0 1 -32.2329,6.2417 25.016842,25.016842 0 0 0 -28.238,20.7993 220.00972,220.00972 0 0 0 0,69.6862 c 2.1589,13.4391 14.8428,22.764 28.2693,20.7899 a 50.152754,50.152754 0 0 1 46.6872,80.6781 c -8.4068,10.6535 -6.6459,26.3015 3.9293,34.8713 a 219.96272,219.96272 0 0 0 60.4177,34.7554 24.753639,24.753639 0 0 0 19.0227,-0.5703 25.173511,25.173511 0 0 0 13.1131,-13.6584 50.152754,50.152754 0 0 1 93.0612,-0.053 25.139044,25.139044 0 0 0 32.352,14.1252 222.97075,222.97075 0 0 0 60.048,-34.7083 25.132777,25.132777 0 0 0 3.9136,-35.0938 49.936551,49.936551 0 0 1 -3.992,-55.9463 49.920881,49.920881 0 0 1 50.4912,-24.6377 25.164111,25.164111 0 0 0 18.3804,-4.5434 24.734839,24.734839 0 0 0 9.9891,-16.2152 219.92198,219.92198 0 0 0 0.047,-69.6862 c -2.1464,-13.439 -14.8272,-22.7859 -28.2537,-20.8119 z m -137.5205,25.5996 c 16.588,28.7142 6.7085,65.5784 -22.0151,82.1664 -28.7236,16.5881 -65.6003,6.7086 -82.1852,-22.0056 -16.585,-28.7142 -6.7086,-65.6097 22.0245,-82.1947 28.733,-16.5849 65.5908,-6.7085 82.1758,22.0339 z"
     p-id="23415"
     id="path4529-40"
     inkscape:connector-curvature="0"
     style="fill:#4179b0;fill-opacity:1;stroke-width:0.47000581" />
  <path
     d="m 2731.1875,1661.178 a 65.600198,65.600198 0 0 1 -66.6341,-32.2542 l -0.1854,-0.3173 a 65.608434,65.608434 0 0 1 5.2397,-73.8552 c 11.044,-14.0057 8.7083,-34.6023 -5.2068,-45.8398 a 289.17638,289.17638 0 0 0 -79.4657,-45.6216 32.892782,32.892782 0 0 0 -42.1901,18.5741 65.884432,65.884432 0 0 1 -61.2255,41.5392 65.641386,65.641386 0 0 1 -61.1638,-41.2261 33.045197,33.045197 0 0 0 -42.5402,-18.537 293.15976,293.15976 0 0 0 -79.0662,45.8233 32.493209,32.493209 0 0 0 -11.9049,22.0713 33.111106,33.111106 0 0 0 6.9535,23.9333 65.954457,65.954457 0 0 1 -18.8048,97.7928 66.349912,66.349912 0 0 1 -42.3755,8.2056 32.888663,32.888663 0 0 0 -37.1232,27.344 289.23817,289.23817 0 0 0 0,91.6138 c 2.8382,17.6678 19.5131,29.9268 37.1644,27.3317 a 65.933863,65.933863 0 0 1 61.378,106.0643 c -11.0521,14.0056 -8.7371,34.5776 5.1655,45.8438 a 289.17638,289.17638 0 0 0 79.4288,45.6916 32.54264,32.54264 0 0 0 25.0084,-0.7497 33.09463,33.09463 0 0 0 17.2394,-17.9562 65.933863,65.933863 0 0 1 122.3438,-0.07 33.049317,33.049317 0 0 0 42.532,18.57 293.13092,293.13092 0 0 0 78.9428,-45.6298 33.041078,33.041078 0 0 0 5.1449,-46.1363 65.649629,65.649629 0 0 1 -5.248,-73.5505 65.629029,65.629029 0 0 1 66.3788,-32.3903 33.082272,33.082272 0 0 0 24.1639,-5.973 32.517925,32.517925 0 0 0 13.1324,-21.3175 289.12282,289.12282 0 0 0 0.062,-91.6137 c -2.8218,-17.6677 -19.4927,-29.9557 -37.144,-27.3606 z m -180.793,33.6548 c 21.8078,37.7496 8.8196,86.2134 -28.9422,108.0211 -37.7619,21.8076 -86.2422,8.8194 -108.0458,-28.93 -21.8035,-37.7494 -8.8194,-86.2545 28.9547,-108.058 37.7742,-21.8037 86.2298,-8.8196 108.0333,28.9669 z"
     p-id="23415"
     id="path4529-45"
     inkscape:connector-curvature="0"
     style="fill:#4179b0;fill-opacity:1;stroke-width:0.61789823" />
  <path
     d="m 2812.3613,437.78178 a 123.49855,123.49855 0 0 1 -125.445,-60.72173 l -0.349,-0.59711 a 123.51405,123.51405 0 0 1 9.8642,-139.03962 c 20.7913,-26.36695 16.3943,-65.14208 -9.8023,-86.29767 a 544.40176,544.40176 0 0 0 -149.602,-85.886833 61.923758,61.923758 0 0 0 -79.4266,34.967333 124.03364,124.03364 0 0 1 -115.2627,78.20157 123.57609,123.57609 0 0 1 -115.1466,-77.61213 62.210694,62.210694 0 0 0 -80.0859,-34.897563 551.90085,551.90085 0 0 0 -148.8496,86.266733 61.171525,61.171525 0 0 0 -22.4121,41.55136 62.334775,62.334775 0 0 0 13.0906,45.05658 124.16547,124.16547 0 0 1 -35.4017,184.10397 124.90996,124.90996 0 0 1 -79.7758,15.44799 61.916004,61.916004 0 0 0 -69.8881,51.47773 544.51808,544.51808 0 0 0 0,172.47148 c 5.3432,33.2612 36.7353,56.3401 69.9655,51.45443 a 124.1267,124.1267 0 0 1 115.5498,199.67612 c -20.8066,26.3669 -16.4484,65.0955 9.7247,86.3055 a 544.40176,544.40176 0 0 0 149.5322,86.01858 61.264584,61.264584 0 0 0 47.0806,-1.4115 62.303756,62.303756 0 0 0 32.4548,-33.8041 124.1267,124.1267 0 0 1 230.3237,-0.1319 62.218451,62.218451 0 0 0 80.0706,34.9595 551.84655,551.84655 0 0 0 148.6169,-85.90208 62.20294,62.20294 0 0 0 9.6861,-86.8562 123.59161,123.59161 0 0 1 -9.8799,-138.4657 123.55282,123.55282 0 0 1 124.9641,-60.97761 62.280491,62.280491 0 0 0 45.491,-11.24479 61.218054,61.218054 0 0 0 24.723,-40.13218 544.30092,544.30092 0 0 0 0.1163,-172.47147 c -5.3122,-33.26121 -36.6969,-56.39446 -69.9271,-51.50882 z m -340.3598,63.35846 c 41.0551,71.06689 16.6036,162.30466 -54.4865,203.35966 -71.0904,41.05492 -162.359,16.6034 -203.4064,-54.46344 -41.0472,-71.06689 -16.6034,-162.38215 54.51,-203.42947 71.1134,-41.04731 162.3357,-16.60341 203.3829,54.53325 z"
     p-id="23415"
     id="path4529-5"
     inkscape:connector-curvature="0"
     style="fill:#4179b0;fill-opacity:1;stroke-width:1.16325164" />
  <path
     d="m 1859.5914,225.88569 a 57.749569,57.749569 0 0 1 -58.6598,-28.39429 l -0.1632,-0.27922 a 57.756817,57.756817 0 0 1 4.6126,-65.01678 c 9.7223,-12.32954 7.6662,-30.46131 -4.5837,-40.353944 a 254.56953,254.56953 0 0 0 -69.9558,-40.161829 28.956375,28.956375 0 0 0 -37.1409,16.351191 57.999785,57.999785 0 0 1 -53.8984,36.568102 57.785828,57.785828 0 0 1 -53.8441,-36.292472 29.09055,29.09055 0 0 0 -37.4492,-16.318566 258.07619,258.07619 0 0 0 -69.6041,40.339476 28.60462,28.60462 0 0 0 -10.4802,19.429972 29.148573,29.148573 0 0 0 6.1214,21.06906 58.06143,58.06143 0 0 1 -16.5543,86.08947 58.409564,58.409564 0 0 1 -37.3043,7.22368 28.95275,28.95275 0 0 0 -32.6806,24.07167 254.62392,254.62392 0 0 0 0,80.64997 c 2.4986,15.55338 17.1779,26.34539 32.7168,24.06077 a 58.043301,58.043301 0 0 1 54.0327,93.37124 c -9.7295,12.3295 -7.6915,30.43951 4.5474,40.35759 a 254.56953,254.56953 0 0 0 69.9232,40.22341 28.648137,28.648137 0 0 0 22.0155,-0.65999 29.134066,29.134066 0 0 0 15.1763,-15.80726 58.043301,58.043301 0 0 1 107.7024,-0.0618 29.094177,29.094177 0 0 0 37.4421,16.34754 258.05081,258.05081 0 0 0 69.4953,-40.16896 29.086925,29.086925 0 0 0 4.5293,-40.61512 57.793085,57.793085 0 0 1 -4.62,-64.7484 57.774947,57.774947 0 0 1 58.4349,-28.51395 29.123187,29.123187 0 0 0 21.2722,-5.25821 28.626378,28.626378 0 0 0 11.5608,-18.76636 254.52236,254.52236 0 0 0 0.054,-80.64995 c -2.4841,-15.55338 -17.16,-26.3708 -32.6989,-24.0862 z m -159.1568,29.62726 c 19.1979,33.23182 7.7641,75.89583 -25.4786,95.09368 -33.2428,19.19783 -75.9212,7.76397 -95.1155,-25.46783 -19.1943,-33.23182 -7.764,-75.93205 25.4896,-95.12633 33.2535,-19.19427 75.9103,-7.76397 95.1045,25.50048 z"
     p-id="23415"
     id="path4529-5-5"
     inkscape:connector-curvature="0"
     style="fill:#4179b0;fill-opacity:1;stroke-width:0.54395199" />
  <path
     d="m 2970.0899,849.3614 a 30.272381,30.272381 0 0 1 -30.7495,-14.88431 l -0.086,-0.14637 a 30.27618,30.27618 0 0 1 2.4179,-34.08185 c 5.0965,-6.46316 4.0187,-15.96785 -2.4027,-21.15358 a 133.4456,133.4456 0 0 0 -36.6709,-21.05287 15.178961,15.178961 0 0 0 -19.4694,8.57131 30.403544,30.403544 0 0 1 -28.2535,19.16903 30.291388,30.291388 0 0 1 -28.2252,-19.02454 15.249295,15.249295 0 0 0 -19.6309,-8.55421 135.2838,135.2838 0 0 0 -36.4865,21.14599 14.99457,14.99457 0 0 0 -5.4937,10.18521 15.279711,15.279711 0 0 0 3.2088,11.04442 30.435859,30.435859 0 0 1 -8.6778,45.12819 30.61835,30.61835 0 0 1 -19.5549,3.78666 15.17706,15.17706 0 0 0 -17.1312,12.61839 133.47411,133.47411 0 0 0 0,42.2768 c 1.3098,8.1531 9.0047,13.81027 17.1502,12.61268 a 30.426355,30.426355 0 0 1 28.3239,48.94531 c -5.1002,6.46311 -4.0318,15.9564 2.3838,21.15546 a 133.4456,133.4456 0 0 0 36.6538,21.08518 15.017381,15.017381 0 0 0 11.5406,-0.346 15.272106,15.272106 0 0 0 7.9554,-8.28615 30.426355,30.426355 0 0 1 56.4577,-0.0323 15.251196,15.251196 0 0 0 19.6272,8.56935 135.27049,135.27049 0 0 0 36.4295,-21.05655 15.247395,15.247395 0 0 0 2.3742,-21.29051 30.295192,30.295192 0 0 1 -2.4218,-33.94116 30.285683,30.285683 0 0 1 30.6317,-14.94705 15.266403,15.266403 0 0 0 11.1509,-2.75637 15.005975,15.005975 0 0 0 6.0602,-9.83734 133.42087,133.42087 0 0 0 0.028,-42.27678 c -1.3022,-8.1531 -8.9953,-13.8236 -17.1408,-12.62602 z m -83.4302,15.53065 c 10.0636,17.42015 4.07,39.78467 -13.3559,49.8482 -17.4259,10.06352 -39.798,4.06988 -49.8596,-13.35026 -10.0617,-17.42015 -4.0699,-39.80366 13.3616,-49.86531 17.4316,-10.06166 39.7923,-4.06989 49.8539,13.36737 z"
     p-id="23415"
     id="path4529-5-9"
     inkscape:connector-curvature="0"
     style="fill:#4179b0;fill-opacity:1;stroke-width:0.28514019" />
</svg>
