<?xml version="1.0" standalone="no"?><!DOCTYPE svg PUBLIC "-//W3C//DTD SVG 1.1//EN" "http://www.w3.org/Graphics/SVG/1.1/DTD/svg11.dtd"><svg t="1720621064823" class="icon" viewBox="0 0 1072 1024" version="1.1" xmlns="http://www.w3.org/2000/svg" p-id="6480" xmlns:xlink="http://www.w3.org/1999/xlink" width="209.375" height="200"><path d="M435.350752 365.781287c112.204493 0 178.870578 88.017099 178.870578 88.017099l-91.255485 77.497928c-41.049335-68.854787-54.739891-99.206281-122.991668-107.492083v195.710186a162.365976 162.365976 0 0 0 51.747175 8.330468c133.220502 0 257.395856-173.778495 257.395856-173.778495s-114.996205-157.229226-290.271058-151.690469c-6.298103 0.17867-12.596205 0.513675-18.894307 1.072018v64.499716a324.17361 324.17361 0 0 1 35.398909-2.166368z m-35.376575-211.120436v96.414569c6.275769-0.536009 12.573871-0.938015 18.894307-1.139019 243.682966-8.263468 402.542552 201.382944 402.542552 201.382945s-182.421636 223.448637-372.369727 223.448637a278.121527 278.121527 0 0 1-49.067132-4.332738v59.608637c13.10988 1.675027 26.666434 2.680044 40.803664 2.680044 176.815878 0 304.698626-91.076816 428.516641-198.680567 20.547001 16.61627 104.588702 56.883926 121.85265 74.505212-117.74325 99.340284-392.068048 179.272585-547.577579 179.272585a458.443795 458.443795 0 0 1-43.595376-2.23337v83.751363H1072.017448v-714.678298H399.974177z m-122.165322 325.245627s53.444537-64.432715 121.919651-56.169248l0.245671 0.067001v-55.878909c-130.361788 14.181897-208.9094 101.863991-208.909401 101.863991s45.359738 171.299455 208.909401 200.645932v-50.920828c-92.193501-31.177841-122.165322-139.607939-122.165322-139.607939zM109.524449 462.307525s96.883577-144.052345 290.449728-158.88192v-52.350185C185.660022 268.428702 0 451.319346 0 451.319346s105.169378 306.217317 399.974177 334.26844v-55.543904C183.605322 702.573435 109.524449 462.307525 109.524449 462.307525z" fill="#42a401" p-id="6481"></path></svg>