<?xml version="1.0" standalone="no"?><!DOCTYPE svg PUBLIC "-//W3C//DTD SVG 1.1//EN" "http://www.w3.org/Graphics/SVG/1.1/DTD/svg11.dtd"><svg t="1720518418311" class="icon" viewBox="0 0 1024 1024" version="1.1" xmlns="http://www.w3.org/2000/svg" p-id="5299" xmlns:xlink="http://www.w3.org/1999/xlink" width="200" height="200"><path d="M511 333.87c-107.78 0-211.73-26.71-300.61-77.23l7.91-13.91c86.45 49.16 187.7 75.14 292.7 75.14s206.23-26 292.7-75.14l7.91 13.91c-88.9 50.52-192.84 77.23-300.61 77.23zM511 458.76a44.68 44.68 0 1 1 44.68-44.67A44.73 44.73 0 0 1 511 458.76z m0-73.35a28.68 28.68 0 1 0 28.68 28.68A28.71 28.71 0 0 0 511 385.41z" fill="#69bdea" p-id="5300"></path><path d="M767.18 865.05h-512.4a48.51 48.51 0 0 1-48.45-48.46V210.51a48.5 48.5 0 0 1 48.45-48.45h512.4a48.51 48.51 0 0 1 48.46 48.45v606.08a48.52 48.52 0 0 1-48.46 48.46z m-512.4-687a32.48 32.48 0 0 0-32.45 32.45v606.09a32.49 32.49 0 0 0 32.45 32.46h512.4a32.49 32.49 0 0 0 32.46-32.46V210.51a32.49 32.49 0 0 0-32.46-32.45z" fill="#69bdea" p-id="5301"></path><path d="M511 282.67A44.68 44.68 0 1 1 555.66 238 44.73 44.73 0 0 1 511 282.67z m0-73.36A28.68 28.68 0 1 0 539.66 238 28.72 28.72 0 0 0 511 209.31z" fill="#69bdea" p-id="5302"></path><path d="M502.98 274.67h16v107.41h-16z" fill="#69bdea" p-id="5303"></path></svg>