<?xml version="1.0" standalone="no"?><!DOCTYPE svg PUBLIC "-//W3C//DTD SVG 1.1//EN" "http://www.w3.org/Graphics/SVG/1.1/DTD/svg11.dtd"><svg t="1713623716180" class="icon" viewBox="0 0 1024 1024" version="1.1" xmlns="http://www.w3.org/2000/svg" p-id="10525" data-darkreader-inline-fill="" xmlns:xlink="http://www.w3.org/1999/xlink" width="200" height="200"><path d="M703.75619 640.828952l11.410286 11.215238 3.510857 3.364572 9.752381-9.435429c1.901714-1.877333 3.657143-3.584 5.168762-5.144381a104.569905 104.569905 0 0 1 149.211429 0 107.861333 107.861333 0 0 1 1.145905 149.967238L718.677333 950.857143l-165.302857-160.036572a107.885714 107.885714 0 0 1 1.170286-149.991619 104.569905 104.569905 0 0 1 149.211428 0zM331.434667 610.255238c21.333333 13.360762 44.373333 24.234667 68.754285 32.231619L219.428571 853.333333h328.582096v73.142857H219.428571a73.142857 73.142857 0 0 1-55.539809-120.734476l167.545905-195.486476z m275.163428 81.968762a34.742857 34.742857 0 0 0-1.048381 47.274667l113.127619 109.543619 113.127619-109.568 2.267429-2.755048a34.791619 34.791619 0 0 0-3.291429-44.495238 31.427048 31.427048 0 0 0-45.104762 0l-9.118476 9.020952-57.880381 55.271619-57.856-55.271619-9.118476-9.020952a31.427048 31.427048 0 0 0-45.104762 0zM499.248762 97.52381c134.656 0 243.809524 109.153524 243.809524 243.809523s-109.153524 243.809524-243.809524 243.809524-243.809524-109.153524-243.809524-243.809524 109.153524-243.809524 243.809524-243.809523z m0 73.142857a170.666667 170.666667 0 1 0 0 341.333333 170.666667 170.666667 0 0 0 0-341.333333z" p-id="10526"></path></svg>