<?xml version="1.0" standalone="no"?><!DOCTYPE svg PUBLIC "-//W3C//DTD SVG 1.1//EN" "http://www.w3.org/Graphics/SVG/1.1/DTD/svg11.dtd"><svg t="1715234509321" class="icon" viewBox="0 0 1024 1024" version="1.1" xmlns="http://www.w3.org/2000/svg" p-id="7368" xmlns:xlink="http://www.w3.org/1999/xlink" width="200" height="200"><path d="M514.346667 528.64a248.32 248.32 0 1 1 248.32-248.32 248.533333 248.533333 0 0 1-248.32 248.32z m0-432.64a184.32 184.32 0 1 0 184.32 184.32 184.533333 184.533333 0 0 0-184.32-184.32z" fill="#333333" p-id="7369"></path><path d="M947.2 985.386667a32 32 0 0 1-32-32 400.853333 400.853333 0 1 0-801.493333 0 32 32 0 0 1-64 0 464.853333 464.853333 0 1 1 929.493333 0 32 32 0 0 1-32 32zM514.346667 370.986667a123.52 123.52 0 0 1-87.466667-36.266667 32 32 0 1 1 45.226667-45.226667 59.946667 59.946667 0 0 0 85.333333 0 32 32 0 0 1 45.226667 45.226667 123.306667 123.306667 0 0 1-88.32 36.266667z" fill="#333333" p-id="7370"></path><path d="M247.04 899.2v-145.92a18.346667 18.346667 0 0 1 18.986667-20.053333 21.333333 21.333333 0 0 1 16 8.96L362.666667 850.346667h1.066666v-97.066667a18.986667 18.986667 0 1 1 37.973334 0v145.92A17.066667 17.066667 0 0 1 384 917.333333a20.053333 20.053333 0 0 1-16-7.04l-81.066667-106.666666h-1.066666v96a16.853333 16.853333 0 0 1-18.986667 18.133333 17.066667 17.066667 0 0 1-19.84-18.56zM436.906667 898.346667V757.333333c0-14.72 6.4-21.333333 18.986666-21.333333h64a16.853333 16.853333 0 0 1 17.92 17.066667 17.28 17.28 0 0 1-17.92 18.133333h-45.013333v36.906667h42.666667a18.133333 18.133333 0 1 1 0 36.053333h-42.666667v39.04h46.933333a16 16 0 0 1 18.133334 16.853333 17.28 17.28 0 0 1-18.133334 18.133334h-65.92a18.133333 18.133333 0 0 1-18.986666-19.84zM591.786667 899.2l-33.066667-139.946667a39.68 39.68 0 0 1-1.066667-8.96 17.706667 17.706667 0 0 1 18.133334-17.066666c11.306667 0 18.346667 5.76 21.333333 18.986666l21.333333 107.946667 33.066667-112a22.613333 22.613333 0 0 1 20.053333-14.933333 19.413333 19.413333 0 0 1 19.84 14.933333L725.333333 860.16l21.333334-107.946667a19.2 19.2 0 0 1 20.053333-18.986666 17.493333 17.493333 0 0 1 17.92 17.066666 39.68 39.68 0 0 1 0 8.96l-32 139.946667a24.106667 24.106667 0 0 1-24.96 18.133333 24.96 24.96 0 0 1-26.026667-17.066666l-29.866666-98.986667-30.08 98.986667a24.106667 24.106667 0 0 1-24.96 17.066666 23.253333 23.253333 0 0 1-24.96-18.133333z" fill="#333333" p-id="7371"></path></svg>