<?xml version="1.0" standalone="no"?><!DOCTYPE svg PUBLIC "-//W3C//DTD SVG 1.1//EN" "http://www.w3.org/Graphics/SVG/1.1/DTD/svg11.dtd"><svg t="1713623629815" class="icon" viewBox="0 0 1024 1024" version="1.1" xmlns="http://www.w3.org/2000/svg" p-id="4380" data-darkreader-inline-fill="" xmlns:xlink="http://www.w3.org/1999/xlink" width="200" height="200"><path d="M911.36 338.83c0-21.25-12.93-39.63-32.94-46.81l-339.49-94.07a83.093 83.093 0 0 0-53.86 0L147.54 291.4l-1.96 0.63c-20.01 7.18-32.93 25.55-32.93 46.8 0 21.26 12.93 39.64 32.93 46.81l339.5 94.07a82.971 82.971 0 0 0 26.93 4.49c9.11 0 18.23-1.5 26.93-4.49l305.8-84.66v173.49c0 15.26 12.37 27.63 27.63 27.63S900 583.8 900 568.54V370.43c7.15-8.66 11.36-19.63 11.36-31.6zM523.3 426.71l-1.96 0.62a27.614 27.614 0 0 1-18.68 0l-319.33-88.49 317.37-87.88 1.95-0.62a27.856 27.856 0 0 1 18.68 0l319.33 88.49-317.36 87.88z" p-id="4381"></path><path d="M778.4 469.17c-15.26 0-27.63 12.37-27.63 27.63v229.38c0 12.42-8.29 23.32-20.26 26.63L523.3 810.18l-1.98 0.63a27.648 27.648 0 0 1-18.65 0l-211.31-58.58c-11.97-3.32-20.26-14.22-20.26-26.64V496.8c0-15.26-12.37-27.63-27.63-27.63s-27.63 12.37-27.63 27.63v228.78c0 37.27 24.87 69.95 60.78 79.9l208.43 57.71c8.71 3 17.83 4.49 26.94 4.49s18.23-1.49 26.94-4.49l206.32-57.11c35.78-9.92 60.77-42.78 60.77-79.9V496.8c0.01-15.26-12.36-27.63-27.62-27.63z" p-id="4382"></path></svg>