<?xml version="1.0" standalone="no"?>
<!DOCTYPE svg PUBLIC "-//W3C//DTD SVG 1.1//EN" "http://www.w3.org/Graphics/SVG/1.1/DTD/svg11.dtd">
<svg t="1716253807155" class="icon" viewBox="0 0 1024 1024" version="1.1"
    xmlns="http://www.w3.org/2000/svg" p-id="2648"
    xmlns:xlink="http://www.w3.org/1999/xlink" width="200" height="200">
    <path d="M256 529.066667H85.333333a17.066667 17.066667 0 1 1 0-34.133334h170.666667a17.066667 17.066667 0 0 1 0 34.133334z" opacity=".278" p-id="2649"></path>
    <path d="M384.017067 307.2a17.032533 17.032533 0 0 1-14.7968-8.533333l-85.333334-147.626667a17.066667 17.066667 0 0 1 29.559467-17.083733l85.333333 147.626666A17.066667 17.066667 0 0 1 384.017067 307.2z" opacity=".122" p-id="2652"></path>
    <path d="M639.982933 307.2a17.0496 17.0496 0 0 1-14.762666-25.6l85.333333-147.626667a17.066667 17.066667 0 1 1 29.559467 17.066667l-85.333334 147.626667a17.032533 17.032533 0 0 1-14.7968 8.533333z" opacity=".922" p-id="2653"></path>
    <path d="M733.883733 401.066667a17.066667 17.066667 0 0 1-8.5504-31.8464l147.626667-85.333334a17.0496 17.0496 0 1 1 17.066667 29.5424l-147.626667 85.333334a16.776533 16.776533 0 0 1-8.516267 2.304z" opacity=".839" p-id="2655"></path>
    <path d="M512 273.066667a17.066667 17.066667 0 0 1-17.066667-17.066667V85.333333a17.066667 17.066667 0 0 1 34.133334 0v170.666667a17.066667 17.066667 0 0 1-17.066667 17.066667z" p-id="2656"></path>
    <path d="M881.476267 742.4a17.015467 17.015467 0 0 1-8.482134-2.269867l-148.48-85.333333a17.0496 17.0496 0 1 1 16.9984-29.5936l148.48 85.333333a17.0496 17.0496 0 0 1-8.516266 31.863467z" opacity=".678" p-id="2660"></path>
    <path d="M938.666667 529.066667H768a17.066667 17.066667 0 1 1 0-34.133334h170.666667a17.066667 17.066667 0 1 1 0 34.133334z" opacity=".761" p-id="2662"></path>
    <path d="M298.6496 898.56a17.066667 17.066667 0 0 1-14.779733-25.565867l85.333333-148.48a17.083733 17.083733 0 0 1 29.5936 16.9984l-85.333333 148.48a17.032533 17.032533 0 0 1-14.813867 8.567467z" opacity=".439" p-id="2664"></path>
    <path d="M512 955.733333a17.066667 17.066667 0 0 1-17.066667-17.066666V768a17.066667 17.066667 0 1 1 34.133334 0v170.666667a17.066667 17.066667 0 0 1-17.066667 17.066666z" opacity=".522" p-id="2665"></path>
    <path d="M725.3504 898.56a17.032533 17.032533 0 0 1-14.7968-8.533333l-85.333333-147.626667a17.066667 17.066667 0 0 1 29.559466-17.066667l85.333334 147.626667a17.066667 17.066667 0 0 1-14.762667 25.6z" opacity=".6" p-id="2666"></path>
    <path d="M290.116267 401.066667a17.032533 17.032533 0 0 1-8.533334-2.286934l-147.626666-85.333333a17.066667 17.066667 0 1 1 17.083733-29.5424l147.626667 85.333333a17.066667 17.066667 0 0 1-8.5504 31.829334z" opacity=".2" p-id="2670"></path>
    <path d="M142.523733 742.4a17.066667 17.066667 0 0 1-8.567466-31.8464l147.626666-85.333333a17.066667 17.066667 0 1 1 17.083734 29.559466l-147.626667 85.333334a16.930133 16.930133 0 0 1-8.516267 2.286933z" opacity=".361" p-id="2671"></path>
</svg>