<?xml version="1.0" standalone="no"?><!DOCTYPE svg PUBLIC "-//W3C//DTD SVG 1.1//EN" "http://www.w3.org/Graphics/SVG/1.1/DTD/svg11.dtd"><svg t="1773298533054" class="icon" viewBox="0 0 1280 1024" version="1.1" xmlns="http://www.w3.org/2000/svg" p-id="2508" xmlns:xlink="http://www.w3.org/1999/xlink" width="250" height="200"><path d="M768 192v448H128V192h640zM128 64C57.4 64 0 121.4 0 192v448c0 70.6 57.4 128 128 128h234.6l-21.4 64H192c-35.4 0-64 28.6-64 64s28.6 64 64 64h512c35.4 0 64-28.6 64-64s-28.6-64-64-64h-149.4l-21.4-64H768c70.6 0 128-57.4 128-128V192c0-70.6-57.4-128-128-128H128z m928 0c-53 0-96 43-96 96v704c0 53 43 96 96 96h128c53 0 96-43 96-96V160c0-53-43-96-96-96h-128z m32 128h64c17.6 0 32 14.4 32 32s-14.4 32-32 32h-64c-17.6 0-32-14.4-32-32s14.4-32 32-32z m-32 160c0-17.6 14.4-32 32-32h64c17.6 0 32 14.4 32 32s-14.4 32-32 32h-64c-17.6 0-32-14.4-32-32z m64 320a64 64 0 1 1 0 128 64 64 0 1 1 0-128z" p-id="2509" fill="#ffffff"></path></svg>